# xmcd CD database file
#
# Track frame offsets:
#	150
#	12153
#	30517
#	46035
#	64502
#	84037
#	99551
#	117000
#	126446
#	144251
#	151097
#	162492
#	173549
#	185498
#	201027
#	217153
#
# Disc length: 3073 seconds
#
# Revision: 0
# Processed by: cddbd v1.5.2PL0 Copyright (c) Steve Scherf et al.
# Submitted via: CDex 1.51
#
DISCID=c40bff10
DTITLE=Del Bromham - Devils Highway
DYEAR=2011
DGENRE=Blues
TTITLE0=Del Bromham - Devils Highway
TTITLE1=Del Bromham - The Well's Run Dry
TTITLE2=Del Bromham - Ain't Love a Wonderful Thing
TTITLE3=Del Bromham - Train
TTITLE4=Del Bromham - Whisky, Wine and Beer
TTITLE5=Del Bromham - Careless Love
TTITLE6=Del Bromham - Slave
TTITLE7=Del Bromham - That's Alright Mama
TTITLE8=Del Bromham - House of Love
TTITLE9=Del Bromham - Devils Highway (Reprise)
TTITLE10=Del Bromham - What's Wrong With You?
TTITLE11=Del Bromham - The Midnight Special
TTITLE12=Del Bromham - Ramblin' on my Mind 1
TTITLE13=Del Bromham - Loving You is Sweeter than Ever
TTITLE14=Del Bromham - 40 Acres and a Mule
TTITLE15=Del Bromham - Ramblin' on my Mind
EXTD=YEAR: 2011
EXTT0=
EXTT1=
EXTT2=
EXTT3=
EXTT4=
EXTT5=
EXTT6=
EXTT7=
EXTT8=
EXTT9=
EXTT10=
EXTT11=
EXTT12=
EXTT13=
EXTT14=
EXTT15=
PLAYORDER=
